<?xml version="1.0" standalone="no"?>
<!DOCTYPE svg PUBLIC "-//W3C//DTD SVG 20010904//EN"
 "http://www.w3.org/TR/2001/REC-SVG-20010904/DTD/svg10.dtd">
<svg version="1.0" xmlns="http://www.w3.org/2000/svg"
 width="2869.000000pt" height="2464.000000pt" viewBox="0 0 2869.000000 2464.000000"
 preserveAspectRatio="xMidYMid meet">

<g transform="translate(0.000000,2464.000000) scale(0.100000,-0.100000)"
fill="#000000" stroke="none">
<path d="M8930 24614 c-159 -27 -461 -143 -655 -251 -264 -146 -701 -471
-1020 -755 -253 -227 -501 -487 -1041 -1098 -486 -548 -641 -748 -1081 -1395
-502 -737 -958 -1487 -1415 -2330 -275 -507 -817 -1584 -1005 -2000 -973
-2147 -1572 -4046 -1792 -5680 -67 -499 -86 -821 -71 -1208 17 -423 39 -536
150 -773 78 -167 157 -268 262 -338 90 -60 383 -146 603 -177 156 -22 387 4
588 67 335 105 1309 566 1747 827 569 339 1174 892 1855 1697 134 158 281 360
390 537 272 438 332 521 477 666 l98 98 0 55 c0 54 -1 55 -37 71 -36 15 -40
14 -80 -7 -131 -69 -248 -219 -547 -701 -269 -433 -600 -835 -1085 -1319 -436
-436 -748 -693 -1115 -922 -280 -174 -1107 -587 -1448 -722 -297 -118 -513
-166 -747 -166 -365 0 -614 112 -739 333 -62 107 -135 364 -162 563 -38 285
-31 585 25 1119 55 518 130 1001 209 1356 119 531 291 1182 421 1599 228 728
423 1255 778 2095 607 1437 1054 2322 1907 3770 749 1270 1450 2245 2232 3100
736 805 1520 1421 2100 1649 215 84 493 101 618 38 76 -39 121 -149 157 -382
21 -141 24 -612 5 -845 -41 -488 -126 -1083 -241 -1685 -21 -113 -69 -362
-105 -555 -129 -679 -148 -775 -252 -1267 -57 -273 -225 -1103 -373 -1845
-148 -741 -364 -1802 -480 -2358 -431 -2074 -513 -2435 -751 -3305 -61 -223
-138 -506 -171 -630 -37 -140 -73 -253 -95 -299 -49 -99 -128 -176 -284 -275
-634 -403 -1698 -1201 -2390 -1795 -819 -703 -1496 -1390 -2049 -2081 -554
-692 -949 -1292 -1241 -1885 -275 -559 -361 -773 -566 -1407 -245 -759 -315
-1052 -413 -1733 -82 -567 -114 -1207 -75 -1487 21 -158 62 -335 89 -388 33
-64 110 -133 178 -159 125 -46 271 -19 556 106 632 275 1310 894 2128 1943
349 447 707 982 1065 1590 486 825 907 1612 1112 2077 42 95 187 419 322 720
320 711 448 1004 519 1188 31 83 183 465 338 850 154 385 293 734 308 775 15
41 148 450 296 907 l268 833 230 154 c364 244 692 420 1020 549 302 119 470
150 614 113 118 -30 177 -74 329 -244 114 -128 208 -162 494 -184 l157 -11 76
-113 c81 -121 132 -170 211 -206 104 -47 304 -19 619 87 632 214 1248 675
1630 1221 59 84 81 110 119 137 l29 21 -7 -95 c-4 -52 -11 -175 -16 -274 -9
-178 -23 -274 -55 -371 -126 -375 -513 -694 -1002 -825 -193 -52 -348 -70
-643 -75 -146 -3 -280 -7 -298 -10 -66 -10 -94 -83 -52 -137 31 -39 87 -45
495 -57 204 -5 422 -15 485 -21 337 -33 622 34 868 204 42 29 164 138 271 243
189 183 258 241 318 265 15 7 84 15 153 19 220 13 266 43 462 303 144 192 187
242 276 321 146 128 384 262 510 287 91 17 222 7 303 -24 37 -14 123 -57 193
-97 166 -94 239 -126 339 -150 146 -35 281 -22 420 42 63 29 74 39 181 172
128 160 197 236 214 236 19 0 132 -111 177 -174 87 -123 134 -243 160 -409 34
-216 130 -400 224 -428 69 -20 152 18 266 122 121 112 1408 1261 1655 1479
380 335 579 522 840 786 506 514 825 921 1425 1819 406 608 587 915 789 1340
133 278 341 689 368 728 82 115 -30 -208 -319 -923 -152 -377 -596 -1449 -786
-1900 -335 -796 -609 -1388 -1105 -2390 -128 -258 -200 -391 -245 -454 -86
-117 -269 -315 -610 -658 -338 -339 -428 -435 -560 -593 -339 -405 -653 -898
-947 -1485 -124 -248 -194 -401 -423 -930 -98 -228 -199 -460 -223 -515 -96
-221 -90 -298 24 -299 47 -1 51 2 154 92 118 105 154 146 325 382 332 458 594
840 863 1260 100 157 267 413 370 570 298 454 473 752 825 1405 191 355 286
508 386 622 145 164 685 726 945 983 560 553 933 852 1269 1016 173 84 233
104 315 104 60 0 73 -4 116 -32 120 -82 196 -348 209 -738 8 -203 20 -293 45
-315 28 -25 94 -31 124 -11 16 10 47 61 82 133 31 65 66 138 78 161 43 88 155
159 288 183 81 15 153 6 307 -36 116 -31 226 -33 333 -6 117 30 170 60 373
211 l80 59 28 -32 c15 -18 53 -70 84 -117 143 -212 353 -360 655 -462 108 -36
137 -42 233 -45 89 -4 122 -1 175 16 61 18 257 96 430 170 180 77 419 109 611
82 46 -7 392 -88 769 -181 932 -230 954 -234 1159 -234 155 0 164 1 181 21 22
28 15 69 -15 89 -12 8 -149 43 -303 79 -360 82 -459 107 -847 215 -666 185
-927 240 -1140 240 -177 0 -337 -35 -477 -106 -137 -69 -365 -166 -423 -179
-146 -35 -267 -12 -461 86 -265 135 -342 211 -419 417 -34 91 -82 181 -118
219 -25 28 -77 39 -108 22 -46 -24 -145 -105 -246 -201 -116 -109 -190 -152
-293 -169 -74 -12 -108 -7 -240 29 -76 21 -115 26 -195 25 -119 -1 -203 -23
-404 -108 -73 -31 -134 -55 -136 -53 -19 24 -62 170 -77 268 -44 276 -143 433
-307 486 -105 34 -295 17 -465 -41 -84 -29 -187 -87 -371 -210 -338 -226 -645
-495 -1157 -1013 -158 -160 -297 -296 -309 -302 -21 -12 -22 -11 -17 36 4 37
52 147 203 459 406 842 500 1047 787 1725 99 234 222 520 273 635 51 116 138
311 192 435 223 504 385 915 853 2165 175 468 377 1008 449 1200 73 193 139
373 148 401 20 66 11 133 -23 174 -22 25 -33 30 -70 30 -68 0 -104 -40 -216
-242 -120 -215 -227 -430 -457 -915 -98 -208 -232 -486 -296 -618 -65 -132
-209 -431 -321 -665 -222 -461 -338 -685 -495 -952 -400 -680 -972 -1510
-1377 -1998 -301 -362 -482 -541 -1187 -1169 -187 -167 -434 -392 -550 -501
-367 -344 -1130 -1026 -1205 -1077 -88 -59 -84 -59 -120 -3 -38 59 -51 105
-85 303 -40 235 -99 381 -216 537 -111 147 -188 200 -263 179 -50 -14 -202
-163 -316 -309 -110 -142 -187 -217 -257 -251 -39 -20 -64 -24 -136 -24 l-88
0 -282 142 c-155 79 -309 150 -342 160 -87 24 -231 21 -320 -7 -118 -37 -360
-173 -510 -289 -113 -86 -227 -206 -341 -356 -62 -82 -133 -172 -158 -200
l-44 -50 -134 -2 c-116 -1 -145 -5 -212 -27 -120 -41 -204 -102 -303 -221 -32
-39 -44 -47 -54 -38 -9 9 -3 26 28 75 119 189 186 391 218 664 9 71 20 280 25
464 11 363 24 560 46 685 20 114 18 139 -12 174 -48 57 -153 66 -192 16 -13
-16 -25 -62 -36 -137 -20 -125 -51 -208 -163 -432 -207 -413 -451 -717 -779
-967 -347 -265 -791 -504 -1101 -591 -103 -29 -236 -29 -308 -2 -48 19 -51 23
-74 84 -35 95 -40 247 -13 355 36 141 74 421 62 464 -11 42 -42 75 -80 86 -14
4 -35 13 -47 21 -22 14 -23 19 -23 187 0 189 -5 209 -57 240 -31 17 -34 18
-68 1 -52 -24 -66 -52 -92 -183 -71 -365 -69 -576 11 -755 39 -88 33 -132 -24
-161 -38 -20 -149 -19 -225 0 -83 22 -134 53 -265 161 -246 204 -358 258 -540
258 -199 0 -453 -75 -785 -231 -249 -117 -435 -218 -580 -314 -90 -59 -253
-149 -270 -149 -24 0 29 222 240 1000 133 492 197 768 385 1675 50 242 136
654 191 915 174 828 345 1653 419 2025 39 198 255 1269 480 2380 480 2374 464
2295 490 2455 11 69 42 310 70 535 27 226 61 487 75 580 35 240 45 378 45 630
0 388 -18 553 -81 743 -53 160 -141 264 -266 313 -50 20 -79 23 -208 25 -97 2
-180 -2 -235 -12z m13220 -6708 c0 -2 -8 -10 -17 -17 -16 -13 -17 -12 -4 4 13
16 21 21 21 13z m-3146 -6877 c-225 -422 -475 -830 -848 -1384 -189 -280 -776
-1122 -776 -1113 0 3 27 70 59 150 340 833 723 1493 1175 2024 107 126 454
479 462 471 3 -2 -30 -69 -72 -148z m-6541 100 c-29 -50 -119 -128 -175 -153
-55 -24 -200 -60 -217 -54 -10 3 386 237 402 238 5 0 0 -14 -10 -31z m-5556
-334 c18 -13 20 -20 13 -43 -249 -778 -536 -1596 -763 -2173 -186 -472 -636
-1574 -733 -1797 -360 -823 -910 -1930 -1279 -2572 -794 -1384 -1692 -2596
-2374 -3204 -293 -262 -677 -534 -896 -637 -94 -44 -328 -118 -401 -126 -92
-10 -151 47 -197 192 -21 67 -22 85 -21 460 1 646 49 1176 154 1695 69 339
275 1147 331 1299 79 210 284 718 361 896 227 518 543 1062 911 1567 229 315
628 815 868 1088 356 405 1097 1125 1620 1574 510 439 1360 1100 1762 1371 97
66 275 188 395 272 119 83 219 152 222 152 3 1 15 -6 27 -14z"/>
</g>
</svg>
